<?xml version="1.0" standalone="no"?><!DOCTYPE svg PUBLIC "-//W3C//DTD SVG 1.1//EN" "http://www.w3.org/Graphics/SVG/1.1/DTD/svg11.dtd"><svg t="1552891178872" class="icon" style="" viewBox="0 0 1024 1024" version="1.1" xmlns="http://www.w3.org/2000/svg" p-id="10831" xmlns:xlink="http://www.w3.org/1999/xlink" width="200" height="200"><defs><style type="text/css"></style></defs><path d="M514.5 1022.9c-68.6 0-135.3-13.5-198-40-60.6-25.6-115-62.3-161.7-109s-83.4-101.1-109-161.7c-26.5-62.7-40-129.3-40-198 0-68.6 13.5-135.3 40-198 25.6-60.6 62.3-115 109-161.7s101.1-83.4 161.7-109c62.7-26.5 129.3-40 198-40s135.3 13.5 198 40c60.6 25.6 115 62.3 161.7 109 46.7 46.7 83.4 101.1 109 161.7 26.5 62.7 40 129.3 40 198 0 68.7-13.5 135.3-40 198-25.6 60.6-62.3 115-109 161.7-46.7 46.7-101.1 83.4-161.7 109-62.8 26.6-129.4 40-198 40z m0-969.2c-254 0-460.6 206.6-460.6 460.6s206.6 460.6 460.6 460.6 460.6-206.6 460.6-460.6S768.5 53.7 514.5 53.7z" p-id="10832"></path><path d="M514.9 913.8l-0.1-48c14.7 0 29.6-1 44.1-2.8l6 47.6c-16.4 2.1-33.3 3.2-50 3.2z m-50-3c-16.6-2.1-33.2-5.2-49.3-9.3l11.8-46.5c14.2 3.6 28.8 6.4 43.4 8.2l-5.9 47.6z m149.3-9.5l-12-46.5c14.2-3.7 28.3-8.2 41.9-13.7l17.7 44.6c-15.4 6.2-31.4 11.4-47.6 15.6zM367.8 886c-15.5-6.1-30.8-13.3-45.4-21.3l23.1-42.1c12.9 7.1 26.3 13.4 39.9 18.8L367.8 886z m339.5-21.7l-23.2-42c12.8-7.1 25.3-15.1 37.2-23.7l28.3 38.8c-13.5 9.8-27.7 18.9-42.3 26.9zM280 837.8c-13.5-9.8-26.5-20.5-38.7-31.9l32.8-35c10.7 10 22.2 19.5 34 28.1L280 837.8z m508.2-32.4l-32.9-35c10.7-10.1 20.9-20.9 30.2-32.2l37 30.6c-10.7 12.8-22.2 25.1-34.3 36.6z m-581.2-36c-10.7-12.8-20.6-26.5-29.6-40.5l40.5-25.8c7.9 12.4 16.6 24.4 26 35.6L207 769.4z m645-41.2l-40.5-25.7c7.9-12.4 15-25.4 21.3-38.7l43.4 20.4c-7.2 15.1-15.3 29.9-24.2 44zM153.2 685c-7.1-15.1-13.4-30.8-18.6-46.6l45.6-14.9c4.5 13.9 10 27.7 16.3 41L153.2 685z m741.4-47.4l-45.7-14.8c4.5-13.9 8.2-28.3 10.9-42.7L907 589c-3.1 16.3-7.3 32.7-12.4 48.6z m-772.5-47.8c-3.1-16.3-5.2-33.1-6.3-49.8l47.9-3c0.9 14.7 2.8 29.4 5.6 43.8l-47.2 9z m791.1-50.6l-47.9-2.9c0.4-7.2 0.7-14.6 0.7-21.9 0-7.4-0.2-14.9-0.7-22.3l47.9-3c0.5 8.4 0.8 16.9 0.8 25.3 0 8.2-0.3 16.6-0.8 24.8z m-749.6-46.4l-47.9-2.9c1-16.7 3.1-33.4 6.1-49.8L169 449c-2.7 14.4-4.5 29.1-5.4 43.8z m696.2-44.5c-2.7-14.4-6.4-28.8-11-42.7l45.6-14.8c5.2 15.9 9.3 32.2 12.5 48.6l-47.1 8.9z m-679.9-42l-45.7-14.7c5.1-15.9 11.3-31.6 18.4-46.7l43.5 20.4c-6.3 13.2-11.7 27-16.2 41z m652.7-41.8c-6.2-13.2-13.4-26.2-21.3-38.6l40.5-25.8c9 14.1 17.1 28.8 24.2 43.9l-43.4 20.5z m-615.3-38l-40.5-25.7c8.9-14.1 18.8-27.7 29.4-40.6l37 30.5c-9.3 11.4-18.1 23.4-25.9 35.8z m568-36.3c-9.4-11.3-19.5-22.1-30.2-32.2l32.9-35c12.2 11.4 23.7 23.7 34.3 36.5l-37 30.7z m-511.9-31.7l-32.9-34.9c12.1-11.4 25.1-22.2 38.6-32.1l28.3 38.8c-11.9 8.7-23.3 18.2-34 28.2z m447.7-28.6c-11.9-8.6-24.4-16.6-37.3-23.7l23.2-42c14.6 8 28.8 17.1 42.3 26.9l-28.2 38.8z m-376.6-23.3l-23.2-42c14.6-8.1 29.8-15.3 45.3-21.5l17.8 44.6c-13.6 5.4-27.1 11.8-39.9 18.9z m299.4-19.2c-13.6-5.4-27.8-10-42-13.6l11.9-46.5c16.2 4.1 32.2 9.4 47.8 15.5l-17.7 44.6zM426.3 174l-12-46.5c16.1-4.2 32.7-7.3 49.3-9.5l6.1 47.6c-14.7 1.9-29.2 4.7-43.4 8.4z m132.2-8.4c-14.5-1.8-29.3-2.7-44.1-2.7h-0.8l-0.2-48h0.9c16.7 0 33.5 1 50 3.1l-5.8 47.6z" p-id="10833"></path><path d="M571 527.6c-33.9-9.1-68.7-13.7-94.1-13.7-69.5 0-209.1 34.3-209.1 102.3v111.2c0 6.2 5.3 11.2 11.8 11.2H571v1h38.1V472.3H571v55.3z m-102.3-59.2c61.8 7.3 113.1-42.7 104.8-101.1-5.3-40.4-39.5-72.5-81.3-77.5-61.8-7.3-113.7 42.1-105.4 101.1 5.9 40.4 39.5 72.4 81.9 77.5zM647 739.6h38.3V548.3H647v191.3z m75.8-116.3v116.3h38.3V623.3h-38.3z" p-id="10834"></path></svg>