<?xml version="1.0" standalone="no"?><!DOCTYPE svg PUBLIC "-//W3C//DTD SVG 1.1//EN" "http://www.w3.org/Graphics/SVG/1.1/DTD/svg11.dtd"><svg t="1559815233350" class="icon" style="" viewBox="0 0 1024 1024" version="1.1" xmlns="http://www.w3.org/2000/svg" p-id="10117" xmlns:xlink="http://www.w3.org/1999/xlink" width="200" height="200"><defs><style type="text/css"></style></defs><path d="M768.896 968.96H266.496c-114.048 0-206.464-92.416-206.464-206.464V260.096c0-114.048 92.416-206.464 206.464-206.464h502.272c114.048 0 206.464 92.416 206.464 206.464v502.272C975.36 876.544 882.944 968.96 768.896 968.96z" fill="#00D16D" p-id="10118"></path><path d="M327.04 357.248l-1.024-53.888c-0.64-29.44 28.544-50.304 56.192-40.32l50.688 18.176c7.808 2.816 16.512 0 21.12-6.784l30.848-44.16c16.768-24.192 52.608-23.936 69.12 0.384l30.208 44.544c4.608 6.784 13.312 9.728 21.12 7.04l50.816-17.664c27.776-9.6 56.576 11.52 55.68 40.96l-1.664 53.76c-0.256 8.32 4.992 15.616 12.928 18.048l51.584 15.616c28.16 8.576 39.04 42.624 20.992 65.92l-33.024 42.496c-5.12 6.528-5.12 15.616-0.128 22.272l32.512 42.88c17.792 23.424 6.528 57.472-21.76 65.664l-51.712 14.976c-7.936 2.304-13.312 9.6-13.184 17.92l1.024 53.888c0.64 29.44-28.544 50.304-56.192 40.32L602.496 741.12c-7.808-2.816-16.512 0-21.12 6.784l-30.848 44.16c-16.768 24.192-52.608 23.936-69.12-0.384l-30.208-44.544c-4.608-6.784-13.312-9.728-21.12-7.04L379.264 757.76c-27.776 9.6-56.576-11.52-55.68-40.96l1.664-53.76c0.256-8.32-4.992-15.616-12.928-18.048l-51.584-15.616c-28.16-8.576-39.04-42.624-20.992-65.92l33.024-42.496c5.12-6.528 5.12-15.616 0.128-22.272l-32.512-42.88c-17.792-23.424-6.528-57.472 21.76-65.664l51.712-14.976c7.936-2.304 13.312-9.6 13.184-17.92z" fill="#FFFFFF" p-id="10119"></path><path d="M470.016 615.552c-6.144 0-12.16-2.304-16.896-7.04l-65.536-65.536c-9.344-9.344-9.344-24.448 0-33.664 9.344-9.344 24.448-9.344 33.664 0l48.64 48.64 144-144c9.344-9.344 24.448-9.344 33.664 0 9.344 9.344 9.344 24.448 0 33.664L486.912 608.64c-4.736 4.608-10.752 6.912-16.896 6.912z" fill="#00D16D" p-id="10120"></path></svg>