<?xml version="1.0" standalone="no"?><!DOCTYPE svg PUBLIC "-//W3C//DTD SVG 1.1//EN" "http://www.w3.org/Graphics/SVG/1.1/DTD/svg11.dtd"><svg t="1552891135002" class="icon" style="" viewBox="0 0 1024 1024" version="1.1" xmlns="http://www.w3.org/2000/svg" p-id="9180" xmlns:xlink="http://www.w3.org/1999/xlink" width="200" height="200"><defs><style type="text/css"></style></defs><path d="M258.702322 193.049379l511.997601 0 0 63.9992L258.702322 257.048579 258.702322 193.049379zM256.994877 321.674576l511.996601 0 0 63.9992L256.994877 385.673776 256.994877 321.674576zM256.994877 449.665979l511.996601 0 0 64.0002L256.994877 513.666178 256.994877 449.665979zM256.994877 577.667378l255.9998 0 0 64.0002L256.994877 641.667578 256.994877 577.667378zM898.699323 0.005118 130.702922 0.005118C95.358409 0.005118 66.704721 28.658806 66.704721 64.005318l0 895.993802c0 35.344513 28.653688 63.9992 63.9992 63.9992l383.998201 0 0-63.9992L130.702922 959.99912 130.702922 64.005318l767.996401 0 0 528.872117 63.9992 0L962.698523 64.005318C962.698523 28.658806 934.039837 0.005118 898.699323 0.005118L898.699323 0.005118z" p-id="9181"></path><path d="M957.098343 733.585705l-36.86002 36.018294-46.073026-46.662835 36.842026-36.018294c12.509934-12.224027 24.733961 0.285907 24.733961 0.285907l21.641966 21.641966C957.38425 708.850744 969.608277 721.360678 957.098343 733.585705zM617.453728 1023.669427l77.655762-34.098918-46.262965-46.855772L617.453728 1023.669427zM661.119536 931.112508l46.085022 46.673831 199.625122-195.064604-46.085022-46.673831L661.119536 931.112508z" p-id="9182"></path></svg>